<svg id="Layer_1" enable-background="new 0 0 512 512" height="512" viewBox="0 0 512 512" width="512" xmlns="http://www.w3.org/2000/svg"><g opacity=".98"><path d="m352.4 512h-192.8c-88.004 0-159.6-71.596-159.6-159.6v-192.8c0-88.004 71.596-159.6 159.6-159.6h192.8c88.004 0 159.6 71.596 159.6 159.6v192.8c0 88.004-71.596 159.6-159.6 159.6z" fill="#ffeb4b"/><path d="m512 352.4v-192.8c0-88.004-71.596-159.6-159.6-159.6h-96.4v512h96.4c88.004 0 159.6-71.596 159.6-159.6z" fill="#ffbe00"/><circle cx="159.6" cy="159.6" fill="#1e4650" r="47.133"/><circle cx="352.4" cy="159.6" fill="#0a1e28" r="47.133"/><path d="m356.31 383.467c-4.55 0-8.854-2.065-11.701-5.615-21.708-27.063-54.004-42.585-88.609-42.585s-66.902 15.522-88.609 42.585c-6.004 7.485-17.404 7.477-23.402 0-20.327-25.34-31.522-57.203-31.522-89.719 0-25.989 21.144-47.133 47.133-47.133h192.8c25.989 0 47.133 21.144 47.133 47.133 0 32.516-11.195 64.379-31.522 89.719-2.845 3.548-7.149 5.615-11.701 5.615z" fill="#1e4650"/><path d="m344.609 377.852c2.847 3.549 7.151 5.615 11.701 5.615 4.552 0 8.856-2.067 11.701-5.614 20.327-25.34 31.522-57.203 31.522-89.719 0-25.989-21.144-47.133-47.133-47.133h-96.4v94.267c34.605-.001 66.902 15.521 88.609 42.584z" fill="#0a1e28"/><path d="m256 431.667c-43.753 0-84.58-19.615-112.012-53.814-4.398-5.484-4.398-13.287 0-18.771 27.432-34.2 68.259-53.815 112.012-53.815s84.58 19.615 112.012 53.815c4.398 5.484 4.398 13.287 0 18.771-27.432 34.199-68.259 53.814-112.012 53.814z" fill="#ff64aa"/><path d="m368.012 377.852c4.398-5.484 4.398-13.287 0-18.771-27.432-34.2-68.259-53.815-112.012-53.815v126.4c43.753.001 84.58-19.614 112.012-53.814z" fill="#f02864"/></g></svg>