<svg width="244" height="188" viewBox="0 0 244 188" fill="none" xmlns="http://www.w3.org/2000/svg">
<path d="M26.88 132.34V161H24.94C24.6333 161 24.3733 160.947 24.16 160.84C23.96 160.733 23.76 160.553 23.56 160.3L6.98 138.7C7.00667 139.033 7.02667 139.36 7.04 139.68C7.05333 140 7.06 140.3 7.06 140.58V161H3.66V132.34H5.66C5.83333 132.34 5.98 132.353 6.1 132.38C6.22 132.393 6.32667 132.427 6.42 132.48C6.51333 132.52 6.60667 132.587 6.7 132.68C6.79333 132.76 6.89333 132.867 7 133L23.58 154.58C23.5533 154.233 23.5267 153.9 23.5 153.58C23.4867 153.247 23.48 152.933 23.48 152.64V132.34H26.88ZM43.7609 151.88C42.1209 151.933 40.7209 152.067 39.5609 152.28C38.4143 152.48 37.4743 152.747 36.7409 153.08C36.0209 153.413 35.4943 153.807 35.1609 154.26C34.8409 154.713 34.6809 155.22 34.6809 155.78C34.6809 156.313 34.7676 156.773 34.9409 157.16C35.1143 157.547 35.3476 157.867 35.6409 158.12C35.9476 158.36 36.3009 158.54 36.7009 158.66C37.1143 158.767 37.5543 158.82 38.0209 158.82C38.6476 158.82 39.2209 158.76 39.7409 158.64C40.2609 158.507 40.7476 158.32 41.2009 158.08C41.6676 157.84 42.1076 157.553 42.5209 157.22C42.9476 156.887 43.3609 156.507 43.7609 156.08V151.88ZM32.2609 143.6C33.3809 142.52 34.5876 141.713 35.8809 141.18C37.1743 140.647 38.6076 140.38 40.1809 140.38C41.3143 140.38 42.3209 140.567 43.2009 140.94C44.0809 141.313 44.8209 141.833 45.4209 142.5C46.0209 143.167 46.4743 143.973 46.7809 144.92C47.0876 145.867 47.2409 146.907 47.2409 148.04V161H45.6609C45.3143 161 45.0476 160.947 44.8609 160.84C44.6743 160.72 44.5276 160.493 44.4209 160.16L44.0209 158.24C43.4876 158.733 42.9676 159.173 42.4609 159.56C41.9543 159.933 41.4209 160.253 40.8609 160.52C40.3009 160.773 39.7009 160.967 39.0609 161.1C38.4343 161.247 37.7343 161.32 36.9609 161.32C36.1743 161.32 35.4343 161.213 34.7409 161C34.0476 160.773 33.4409 160.44 32.9209 160C32.4143 159.56 32.0076 159.007 31.7009 158.34C31.4076 157.66 31.2609 156.86 31.2609 155.94C31.2609 155.14 31.4809 154.373 31.9209 153.64C32.3609 152.893 33.0743 152.233 34.0609 151.66C35.0476 151.087 36.3343 150.62 37.9209 150.26C39.5076 149.887 41.4543 149.673 43.7609 149.62V148.04C43.7609 146.467 43.4209 145.28 42.7409 144.48C42.0609 143.667 41.0676 143.26 39.7609 143.26C38.8809 143.26 38.1409 143.373 37.5409 143.6C36.9543 143.813 36.4409 144.06 36.0009 144.34C35.5743 144.607 35.2009 144.853 34.8809 145.08C34.5743 145.293 34.2676 145.4 33.9609 145.4C33.7209 145.4 33.5143 145.34 33.3409 145.22C33.1676 145.087 33.0209 144.927 32.9009 144.74L32.2609 143.6ZM69.5941 140.74L61.3341 161H58.1341L49.8741 140.74H52.7741C53.0674 140.74 53.3074 140.813 53.4941 140.96C53.6807 141.107 53.8074 141.28 53.8741 141.48L59.0141 154.52C59.1741 155.013 59.3141 155.493 59.4341 155.96C59.5541 156.427 59.6674 156.893 59.7741 157.36C59.8807 156.893 59.9941 156.427 60.1141 155.96C60.2341 155.493 60.3807 155.013 60.5541 154.52L65.7541 141.48C65.8341 141.267 65.9674 141.093 66.1541 140.96C66.3407 140.813 66.5607 140.74 66.8141 140.74H69.5941ZM85.8722 148.66C85.8722 147.833 85.7522 147.08 85.5122 146.4C85.2855 145.707 84.9455 145.113 84.4922 144.62C84.0522 144.113 83.5122 143.727 82.8722 143.46C82.2322 143.18 81.5055 143.04 80.6922 143.04C78.9855 143.04 77.6322 143.54 76.6322 144.54C75.6455 145.527 75.0322 146.9 74.7922 148.66H85.8722ZM88.7522 158.16C88.3122 158.693 87.7855 159.16 87.1722 159.56C86.5589 159.947 85.8989 160.267 85.1922 160.52C84.4989 160.773 83.7789 160.96 83.0322 161.08C82.2855 161.213 81.5455 161.28 80.8122 161.28C79.4122 161.28 78.1189 161.047 76.9322 160.58C75.7589 160.1 74.7389 159.407 73.8722 158.5C73.0189 157.58 72.3522 156.447 71.8722 155.1C71.3922 153.753 71.1522 152.207 71.1522 150.46C71.1522 149.047 71.3655 147.727 71.7922 146.5C72.2322 145.273 72.8589 144.213 73.6722 143.32C74.4855 142.413 75.4789 141.707 76.6522 141.2C77.8255 140.68 79.1455 140.42 80.6122 140.42C81.8255 140.42 82.9455 140.627 83.9722 141.04C85.0122 141.44 85.9055 142.027 86.6522 142.8C87.4122 143.56 88.0055 144.507 88.4322 145.64C88.8589 146.76 89.0722 148.04 89.0722 149.48C89.0722 150.04 89.0122 150.413 88.8922 150.6C88.7722 150.787 88.5455 150.88 88.2122 150.88H74.6722C74.7122 152.16 74.8855 153.273 75.1922 154.22C75.5122 155.167 75.9522 155.96 76.5122 156.6C77.0722 157.227 77.7389 157.7 78.5122 158.02C79.2855 158.327 80.1522 158.48 81.1122 158.48C82.0055 158.48 82.7722 158.38 83.4122 158.18C84.0655 157.967 84.6255 157.74 85.0922 157.5C85.5589 157.26 85.9455 157.04 86.2522 156.84C86.5722 156.627 86.8455 156.52 87.0722 156.52C87.3655 156.52 87.5922 156.633 87.7522 156.86L88.7522 158.16ZM107.005 148.66C107.005 147.833 106.885 147.08 106.645 146.4C106.418 145.707 106.078 145.113 105.625 144.62C105.185 144.113 104.645 143.727 104.005 143.46C103.365 143.18 102.638 143.04 101.825 143.04C100.118 143.04 98.765 143.54 97.765 144.54C96.7783 145.527 96.165 146.9 95.925 148.66H107.005ZM109.885 158.16C109.445 158.693 108.918 159.16 108.305 159.56C107.692 159.947 107.032 160.267 106.325 160.52C105.632 160.773 104.912 160.96 104.165 161.08C103.418 161.213 102.678 161.28 101.945 161.28C100.545 161.28 99.2517 161.047 98.065 160.58C96.8917 160.1 95.8717 159.407 95.005 158.5C94.1517 157.58 93.485 156.447 93.005 155.1C92.525 153.753 92.285 152.207 92.285 150.46C92.285 149.047 92.4983 147.727 92.925 146.5C93.365 145.273 93.9917 144.213 94.805 143.32C95.6183 142.413 96.6117 141.707 97.785 141.2C98.9583 140.68 100.278 140.42 101.745 140.42C102.958 140.42 104.078 140.627 105.105 141.04C106.145 141.44 107.038 142.027 107.785 142.8C108.545 143.56 109.138 144.507 109.565 145.64C109.992 146.76 110.205 148.04 110.205 149.48C110.205 150.04 110.145 150.413 110.025 150.6C109.905 150.787 109.678 150.88 109.345 150.88H95.805C95.845 152.16 96.0183 153.273 96.325 154.22C96.645 155.167 97.085 155.96 97.645 156.6C98.205 157.227 98.8717 157.7 99.645 158.02C100.418 158.327 101.285 158.48 102.245 158.48C103.138 158.48 103.905 158.38 104.545 158.18C105.198 157.967 105.758 157.74 106.225 157.5C106.692 157.26 107.078 157.04 107.385 156.84C107.705 156.627 107.978 156.52 108.205 156.52C108.498 156.52 108.725 156.633 108.885 156.86L109.885 158.16ZM117.938 143.68C118.378 143.187 118.844 142.74 119.338 142.34C119.831 141.94 120.351 141.6 120.898 141.32C121.458 141.027 122.044 140.807 122.658 140.66C123.284 140.5 123.958 140.42 124.678 140.42C125.784 140.42 126.758 140.607 127.598 140.98C128.451 141.34 129.158 141.86 129.718 142.54C130.291 143.207 130.724 144.013 131.018 144.96C131.311 145.907 131.458 146.953 131.458 148.1V161H127.878V148.1C127.878 146.567 127.524 145.38 126.818 144.54C126.124 143.687 125.064 143.26 123.638 143.26C122.584 143.26 121.598 143.513 120.678 144.02C119.771 144.527 118.931 145.213 118.158 146.08V161H114.578V140.74H116.718C117.224 140.74 117.538 140.987 117.658 141.48L117.938 143.68ZM162.172 146.68C162.172 148.827 161.832 150.78 161.152 152.54C160.472 154.3 159.512 155.807 158.272 157.06C157.032 158.313 155.539 159.287 153.792 159.98C152.059 160.66 150.139 161 148.032 161H137.332V132.34H148.032C150.139 132.34 152.059 132.687 153.792 133.38C155.539 134.06 157.032 135.033 158.272 136.3C159.512 137.553 160.472 139.06 161.152 140.82C161.832 142.58 162.172 144.533 162.172 146.68ZM158.192 146.68C158.192 144.92 157.952 143.347 157.472 141.96C156.992 140.573 156.312 139.4 155.432 138.44C154.552 137.48 153.485 136.747 152.232 136.24C150.979 135.733 149.579 135.48 148.032 135.48H141.212V157.86H148.032C149.579 157.86 150.979 157.607 152.232 157.1C153.485 156.593 154.552 155.867 155.432 154.92C156.312 153.96 156.992 152.787 157.472 151.4C157.952 150.013 158.192 148.44 158.192 146.68ZM182.2 150.36L177.7 138.7C177.567 138.353 177.427 137.953 177.28 137.5C177.134 137.033 176.994 136.54 176.86 136.02C176.58 137.1 176.294 138 176 138.72L171.5 150.36H182.2ZM190.28 161H187.28C186.934 161 186.654 160.913 186.44 160.74C186.227 160.567 186.067 160.347 185.96 160.08L183.28 153.16H170.42L167.74 160.08C167.66 160.32 167.507 160.533 167.28 160.72C167.054 160.907 166.774 161 166.44 161H163.44L174.9 132.34H178.82L190.28 161Z" fill="black"/>
<path fill-rule="evenodd" clip-rule="evenodd" d="M8 8H236V180H122V188H236H244V180V8V0H236H8H0V8V94H8V8Z" fill="black"/>
<path d="M202.288 18H197.157V23.1997H202.288V18Z" fill="black"/>
<path d="M194.392 25.2203H191.256V28.3985H194.392V25.2203Z" fill="black"/>
<path d="M210.956 27.1854H215.058V20.9478H204.796V31.3442H210.956V27.1854Z" fill="black"/>
<path d="M212.324 28.5724V39.3756H217.879V44.4584H228V28.5724H212.324Z" fill="black"/>
<path d="M189.432 39.3756H197.157V30.7105H178V50.1217H189.432V39.3756Z" fill="black"/>
<path d="M214.718 42.5791H192.594V65.0001H214.718V42.5791Z" fill="black"/>
</svg>
